<svg width="332" height="335" viewBox="0 0 332 335" fill="none" xmlns="http://www.w3.org/2000/svg">
<path d="M51.6376 46.7297L2 166L46.0503 277.088L168.97 333L280.715 286.034L330 166L286.302 54.5574L168.97 2L51.6376 46.7297Z" fill="#5CD7FE" stroke="#5CD7FE" stroke-width="3"/>
<path d="M83.1148 78.082L48 160.967L77.9126 246.443L170.251 284L249.585 250.328L286 167.443L256.087 85.8525L170.251 47L83.1148 78.082Z" fill="#82FF6D" stroke="white" stroke-width="3"/>
<line x1="168.5" y1="5.00887" x2="166.566" y2="332.009" stroke="#FFFAFA" stroke-width="3"/>
<rect x="73.0995" y="165.356" width="133.739" height="133.739" transform="rotate(-45 73.0995 165.356)" fill="#F7FA78" stroke="white" stroke-width="3"/>
<line x1="4" y1="165.5" x2="326" y2="165.5" stroke="#FFFEFE" stroke-width="3"/>
<circle cx="167" cy="162" r="36" fill="#F2A259" stroke="white" stroke-width="2"/>
<path d="M155.32 164.875H151.562L150.906 167H147.977L152.148 155.625H154.727L158.93 167H155.984L155.32 164.875ZM152.219 162.758H154.664L153.438 158.812L152.219 162.758ZM164.758 160.93L163.891 160.867C163.062 160.867 162.531 161.128 162.297 161.648V167H159.664V158.547H162.133L162.219 159.633C162.661 158.805 163.279 158.391 164.07 158.391C164.352 158.391 164.596 158.422 164.805 158.484L164.758 160.93ZM168.484 167H165.844V158.547H168.484V167ZM165.688 156.367C165.688 155.992 165.823 155.685 166.094 155.445C166.365 155.206 166.716 155.086 167.148 155.086C167.581 155.086 167.932 155.206 168.203 155.445C168.474 155.685 168.609 155.992 168.609 156.367C168.609 156.742 168.474 157.049 168.203 157.289C167.932 157.529 167.581 157.648 167.148 157.648C166.716 157.648 166.365 157.529 166.094 157.289C165.823 157.049 165.688 156.742 165.688 156.367ZM174.203 167.156C172.906 167.156 171.857 166.771 171.055 166C170.253 165.224 169.852 164.216 169.852 162.977V162.758C169.852 161.893 170.01 161.13 170.328 160.469C170.651 159.807 171.12 159.297 171.734 158.938C172.349 158.573 173.078 158.391 173.922 158.391C175.109 158.391 176.047 158.76 176.734 159.5C177.422 160.234 177.766 161.26 177.766 162.578V163.602H172.531C172.625 164.076 172.831 164.448 173.148 164.719C173.466 164.99 173.878 165.125 174.383 165.125C175.216 165.125 175.867 164.833 176.336 164.25L177.539 165.672C177.211 166.125 176.745 166.487 176.141 166.758C175.542 167.023 174.896 167.156 174.203 167.156ZM173.906 160.422C173.135 160.422 172.677 160.932 172.531 161.953H175.188V161.75C175.198 161.328 175.091 161.003 174.867 160.773C174.643 160.539 174.323 160.422 173.906 160.422ZM181.609 167H178.969V155H181.609V167Z" fill="white"/>
<path d="M156.062 216.148C156.026 216.94 155.812 217.641 155.422 218.25C155.031 218.854 154.482 219.323 153.773 219.656C153.07 219.99 152.266 220.156 151.359 220.156C149.865 220.156 148.688 219.669 147.828 218.695C146.969 217.721 146.539 216.346 146.539 214.57V214.008C146.539 212.893 146.732 211.919 147.117 211.086C147.508 210.247 148.068 209.602 148.797 209.148C149.526 208.69 150.37 208.461 151.328 208.461C152.708 208.461 153.818 208.826 154.656 209.555C155.495 210.279 155.971 211.279 156.086 212.555H153.352C153.331 211.862 153.156 211.365 152.828 211.062C152.5 210.76 152 210.609 151.328 210.609C150.646 210.609 150.146 210.865 149.828 211.375C149.51 211.885 149.344 212.701 149.328 213.82V214.625C149.328 215.839 149.479 216.706 149.781 217.227C150.089 217.747 150.615 218.008 151.359 218.008C151.99 218.008 152.471 217.859 152.805 217.562C153.138 217.266 153.315 216.794 153.336 216.148H156.062ZM159.812 212.453C160.375 211.745 161.094 211.391 161.969 211.391C162.901 211.391 163.604 211.667 164.078 212.219C164.552 212.771 164.794 213.586 164.805 214.664V220H162.164V214.727C162.164 214.279 162.073 213.951 161.891 213.742C161.708 213.529 161.398 213.422 160.961 213.422C160.419 213.422 160.036 213.594 159.812 213.938V220H157.18V208H159.812V212.453ZM171.383 213.93L170.516 213.867C169.688 213.867 169.156 214.128 168.922 214.648V220H166.289V211.547H168.758L168.844 212.633C169.286 211.805 169.904 211.391 170.695 211.391C170.977 211.391 171.221 211.422 171.43 211.484L171.383 213.93ZM175.109 220H172.469V211.547H175.109V220ZM172.312 209.367C172.312 208.992 172.448 208.685 172.719 208.445C172.99 208.206 173.341 208.086 173.773 208.086C174.206 208.086 174.557 208.206 174.828 208.445C175.099 208.685 175.234 208.992 175.234 209.367C175.234 209.742 175.099 210.049 174.828 210.289C174.557 210.529 174.206 210.648 173.773 210.648C173.341 210.648 172.99 210.529 172.719 210.289C172.448 210.049 172.312 209.742 172.312 209.367ZM181.164 217.625C181.164 217.401 181.047 217.221 180.812 217.086C180.578 216.951 180.133 216.81 179.477 216.664C178.82 216.518 178.279 216.328 177.852 216.094C177.424 215.854 177.099 215.565 176.875 215.227C176.651 214.888 176.539 214.5 176.539 214.062C176.539 213.286 176.859 212.648 177.5 212.148C178.141 211.643 178.979 211.391 180.016 211.391C181.13 211.391 182.026 211.643 182.703 212.148C183.38 212.654 183.719 213.318 183.719 214.141H181.078C181.078 213.464 180.721 213.125 180.008 213.125C179.732 213.125 179.5 213.203 179.312 213.359C179.125 213.51 179.031 213.701 179.031 213.93C179.031 214.164 179.146 214.354 179.375 214.5C179.604 214.646 179.969 214.766 180.469 214.859C180.974 214.953 181.417 215.065 181.797 215.195C183.068 215.633 183.703 216.417 183.703 217.547C183.703 218.318 183.359 218.945 182.672 219.43C181.99 219.914 181.104 220.156 180.016 220.156C179.292 220.156 178.646 220.026 178.078 219.766C177.51 219.505 177.068 219.151 176.75 218.703C176.432 218.255 176.273 217.784 176.273 217.289H178.734C178.745 217.68 178.875 217.966 179.125 218.148C179.375 218.326 179.695 218.414 180.086 218.414C180.445 218.414 180.714 218.341 180.891 218.195C181.073 218.049 181.164 217.859 181.164 217.625Z" fill="#F2A259"/>
<path d="M145.859 110V98.625H149.945C151.409 98.625 152.521 98.8932 153.281 99.4297C154.047 99.9661 154.43 100.745 154.43 101.766C154.43 102.354 154.294 102.857 154.023 103.273C153.753 103.69 153.354 103.997 152.828 104.195C153.422 104.352 153.878 104.643 154.195 105.07C154.513 105.497 154.672 106.018 154.672 106.633C154.672 107.747 154.318 108.586 153.609 109.148C152.906 109.706 151.862 109.99 150.477 110H145.859ZM148.602 105.164V107.891H150.398C150.893 107.891 151.273 107.779 151.539 107.555C151.805 107.326 151.938 107.005 151.938 106.594C151.938 105.646 151.466 105.169 150.523 105.164H148.602ZM148.602 103.367H150.031C150.63 103.362 151.057 103.253 151.312 103.039C151.568 102.826 151.695 102.51 151.695 102.094C151.695 101.615 151.557 101.271 151.281 101.062C151.005 100.849 150.56 100.742 149.945 100.742H148.602V103.367ZM160.828 110C160.734 109.828 160.651 109.576 160.578 109.242C160.094 109.852 159.417 110.156 158.547 110.156C157.75 110.156 157.073 109.917 156.516 109.438C155.958 108.953 155.68 108.346 155.68 107.617C155.68 106.701 156.018 106.008 156.695 105.539C157.372 105.07 158.357 104.836 159.648 104.836H160.461V104.391C160.461 103.615 160.125 103.227 159.453 103.227C158.828 103.227 158.516 103.534 158.516 104.148H155.883C155.883 103.331 156.229 102.667 156.922 102.156C157.62 101.646 158.508 101.391 159.586 101.391C160.664 101.391 161.516 101.654 162.141 102.18C162.766 102.706 163.086 103.427 163.102 104.344V108.086C163.112 108.862 163.232 109.456 163.461 109.867V110H160.828ZM159.18 108.281C159.508 108.281 159.779 108.211 159.992 108.07C160.211 107.93 160.367 107.771 160.461 107.594V106.242H159.695C158.779 106.242 158.32 106.654 158.32 107.477C158.32 107.716 158.401 107.911 158.562 108.062C158.724 108.208 158.93 108.281 159.18 108.281ZM169.68 103.93L168.812 103.867C167.984 103.867 167.453 104.128 167.219 104.648V110H164.586V101.547H167.055L167.141 102.633C167.583 101.805 168.201 101.391 168.992 101.391C169.273 101.391 169.518 101.422 169.727 101.484L169.68 103.93ZM175.742 103.93L174.875 103.867C174.047 103.867 173.516 104.128 173.281 104.648V110H170.648V101.547H173.117L173.203 102.633C173.646 101.805 174.263 101.391 175.055 101.391C175.336 101.391 175.581 101.422 175.789 101.484L175.742 103.93ZM180.211 106.312L181.617 101.547H184.438L180.992 111.414L180.844 111.773C180.354 112.867 179.49 113.414 178.25 113.414C177.906 113.414 177.544 113.362 177.164 113.258V111.375H177.508C177.878 111.375 178.159 111.32 178.352 111.211C178.549 111.107 178.695 110.917 178.789 110.641L179 110.078L176.062 101.547H178.875L180.211 106.312Z" fill="#F2A259"/>
<path d="M96.9677 114.744L94.9909 116.622L91.7194 113.178L88.791 115.96L92.0624 119.403L90.0743 121.292L82.2401 113.045L84.2282 111.156L87.3382 114.43L90.2666 111.648L87.1566 108.374L89.1334 106.497L96.9677 114.744ZM100.157 111.714L98.2421 113.533L92.4203 107.404L94.3348 105.586L100.157 111.714ZM90.8058 105.932C90.5475 105.66 90.434 105.344 90.4654 104.984C90.4967 104.623 90.6691 104.294 90.9826 103.997C91.296 103.699 91.6334 103.544 91.9947 103.531C92.3561 103.518 92.6659 103.647 92.9242 103.919C93.1825 104.191 93.2959 104.507 93.2646 104.868C93.2332 105.228 93.0608 105.557 92.7474 105.854C92.434 106.152 92.0966 106.307 91.7352 106.32C91.3739 106.333 91.064 106.204 90.8058 105.932ZM103.351 108.68L101.437 110.498L93.1721 101.798L95.0866 99.9795L103.351 108.68ZM106.546 105.645L104.631 107.464L96.3667 98.7635L98.2812 96.9448L106.546 105.645Z" fill="#F2A259"/>
<path d="M34.4938 133.376C35.1835 133.766 35.7117 134.274 36.0785 134.898C36.4407 135.519 36.6103 136.221 36.5873 137.004C36.5666 137.782 36.3514 138.575 35.9416 139.383C35.2656 140.716 34.2989 141.546 33.0416 141.872C31.7843 142.198 30.3636 141.959 28.7796 141.156L28.2779 140.902C27.2838 140.398 26.5023 139.786 25.9333 139.065C25.362 138.337 25.0392 137.546 24.9648 136.691C24.8858 135.833 25.063 134.977 25.4963 134.122C26.1205 132.891 26.9474 132.066 27.9769 131.648C29.0018 131.228 30.1092 131.255 31.2992 131.73L30.0626 134.169C29.4354 133.874 28.9128 133.805 28.495 133.961C28.0772 134.117 27.7164 134.494 27.4125 135.094C27.104 135.702 27.1055 136.264 27.4171 136.778C27.7286 137.292 28.3803 137.809 29.3719 138.33L30.0896 138.693C31.172 139.242 32.0138 139.5 32.6149 139.466C33.2184 139.427 33.6886 139.076 34.0254 138.412C34.3104 137.849 34.3958 137.353 34.2818 136.921C34.1678 136.49 33.8274 136.118 33.2608 135.808L34.4938 133.376ZM32.8938 128.36C32.5164 127.538 32.5256 126.737 32.9213 125.957C33.3429 125.125 33.9071 124.623 34.6138 124.45C35.3205 124.277 36.1571 124.429 37.1234 124.907L41.8825 127.321L40.6883 129.676L35.9849 127.291C35.5854 127.088 35.2516 127.021 34.9833 127.09C34.7104 127.156 34.4751 127.384 34.2772 127.774C34.0323 128.257 34.0124 128.676 34.2177 129.031L39.6249 131.773L38.4343 134.121L27.7314 128.695L28.9221 126.346L32.8938 128.36ZM39.4432 118.708L38.9952 119.454C38.6207 120.192 38.6128 120.784 38.9713 121.228L43.7444 123.648L42.5538 125.997L35.0144 122.174L36.1308 119.972L37.1382 120.386C36.5998 119.617 36.5096 118.879 36.8677 118.173C36.9948 117.922 37.1334 117.718 37.2834 117.561L39.4432 118.708ZM41.1698 119.207C40.4173 118.826 39.8226 118.34 39.3856 117.751C38.9441 117.159 38.7043 116.509 38.6664 115.801C38.6284 115.092 38.7967 114.369 39.1712 113.63C39.7435 112.501 40.5453 111.79 41.5765 111.495C42.603 111.198 43.7179 111.354 44.921 111.964L45.0046 112.007C46.1799 112.603 46.9476 113.404 47.3076 114.41C47.6654 115.408 47.5616 116.465 46.9963 117.58C46.4523 118.653 45.6948 119.353 44.724 119.678C43.7486 120.001 42.6974 119.909 41.5706 119.402L41.1698 119.207ZM42.5068 116.933C43.2036 117.286 43.7699 117.436 44.2058 117.383C44.6417 117.329 44.968 117.089 45.1847 116.662C45.6086 115.826 45.1819 115.072 43.9046 114.401L43.6677 114.281C42.3159 113.595 41.4209 113.685 40.9828 114.549C40.5848 115.334 40.9523 116.054 42.0853 116.711L42.5068 116.933ZM42.8082 106.802L43.732 107.175C43.32 106.294 43.3425 105.403 43.7994 104.502C44.2822 103.55 44.9871 103.098 45.9138 103.148C45.4157 102.253 45.4116 101.322 45.9015 100.356C46.6764 98.8278 47.9989 98.5114 49.869 99.4071L54.7744 101.894L53.5803 104.249L48.8211 101.836C48.4356 101.641 48.1216 101.563 47.8791 101.604C47.6366 101.645 47.4282 101.837 47.2539 102.181C47.0184 102.645 47.0496 103.096 47.3477 103.533L47.4488 103.576L52.5981 106.187L51.4039 108.542L46.6587 106.136C46.2639 105.936 45.9464 105.853 45.7063 105.889C45.4662 105.925 45.2566 106.12 45.0776 106.473C44.8491 106.923 44.8816 107.372 45.1749 107.819L50.4218 110.479L49.2312 112.827L41.6918 109.004L42.8082 106.802ZM57.4434 96.9759C56.8569 98.1326 56.0386 98.8943 54.9884 99.2611C53.9335 99.6255 52.8533 99.5275 51.7477 98.9669L51.5526 98.868C50.7814 98.477 50.1727 97.9902 49.7264 97.4077C49.2825 96.8206 49.0393 96.1717 48.9967 95.461C48.9494 94.748 49.1166 94.0152 49.4981 93.2627C50.0352 92.2035 50.7889 91.5346 51.7595 91.2559C52.7254 90.9748 53.796 91.1322 54.9712 91.7281L55.884 92.1909L53.5169 96.8595C53.982 96.9902 54.4072 96.9751 54.7925 96.8142C55.1777 96.6534 55.4845 96.3476 55.713 95.897C56.0899 95.1538 56.1241 94.4412 55.8158 93.7593L57.6281 93.3293C57.8839 93.8268 57.9959 94.4063 57.9642 95.0676C57.9303 95.722 57.7567 96.358 57.4434 96.9759ZM51.3028 94.1952C50.9542 94.8827 51.2021 95.5223 52.0467 96.114L53.2479 93.7449L53.0667 93.6531C52.6952 93.453 52.3565 93.401 52.0509 93.4971C51.7406 93.5909 51.4912 93.8236 51.3028 94.1952Z" fill="#FCFCFC"/>
<path d="M97.1856 50.8336L92.6453 40.404L96.0048 38.9415C96.9265 38.5403 97.8465 38.3897 98.7649 38.4898C99.6812 38.5851 100.511 38.9254 101.254 39.5107C102 40.0892 102.581 40.8501 102.998 41.7936L103.207 42.2735C103.623 43.2286 103.793 44.1742 103.717 45.1102C103.645 46.0393 103.334 46.8788 102.786 47.6288C102.24 48.3719 101.517 48.9422 100.617 49.3399L97.1856 50.8336ZM96.0046 41.2507L98.8579 47.805L99.7318 47.4246C100.453 47.1107 100.896 46.614 101.06 45.9347C101.222 45.2505 101.083 44.4023 100.642 43.3899L100.446 42.9386C100.007 41.931 99.4833 41.2559 98.8741 40.9133C98.2648 40.5707 97.5901 40.5605 96.8499 40.8827L96.0046 41.2507ZM110.371 45.2641C109.182 45.7818 108.066 45.8473 107.023 45.4607C105.977 45.0693 105.207 44.3053 104.713 43.1687L104.625 42.9681C104.28 42.1754 104.121 41.4124 104.149 40.6791C104.181 39.9437 104.407 39.2886 104.827 38.7138C105.245 38.1342 105.841 37.6761 106.614 37.3393C107.703 36.8653 108.71 36.8302 109.636 37.2339C110.559 37.6328 111.284 38.4364 111.81 39.6446L112.218 40.5829L107.419 42.6722C107.694 43.0693 108.032 43.3287 108.431 43.4502C108.83 43.5717 109.262 43.5316 109.725 43.33C110.489 42.9974 110.969 42.4701 111.166 41.7481L112.837 42.5716C112.717 43.118 112.434 43.636 111.988 44.1255C111.545 44.6081 111.006 44.9876 110.371 45.2641ZM107.411 39.208C106.704 39.5156 106.487 40.1666 106.761 41.1608L109.197 40.1005L109.116 39.9143C108.957 39.5233 108.729 39.2675 108.432 39.1467C108.133 39.0212 107.793 39.0416 107.411 39.208ZM117.663 39.3291C117.573 39.1238 117.394 39.0058 117.125 38.9752C116.856 38.9446 116.392 38.9934 115.732 39.1216C115.072 39.2498 114.499 39.2917 114.014 39.2473C113.527 39.1981 113.113 39.063 112.773 38.842C112.432 38.621 112.175 38.3099 112 37.9088C111.69 37.1972 111.729 36.4844 112.117 35.7702C112.503 35.0513 113.171 34.485 114.121 34.0713C115.143 33.6264 116.065 33.5005 116.888 33.6934C117.71 33.8864 118.286 34.3602 118.614 35.1147L116.193 36.1687C115.923 35.5479 115.461 35.3798 114.806 35.6647C114.553 35.7748 114.372 35.939 114.262 36.1571C114.151 36.3704 114.141 36.5821 114.232 36.7922C114.326 37.0071 114.507 37.1357 114.775 37.178C115.043 37.2202 115.425 37.1845 115.921 37.0709C116.422 36.9552 116.873 36.8812 117.273 36.8488C118.613 36.7427 119.508 37.2078 119.96 38.2441C120.267 38.9508 120.203 39.6635 119.766 40.382C119.333 41.0985 118.618 41.6739 117.62 42.1084C116.956 42.3974 116.312 42.5358 115.688 42.5236C115.063 42.5114 114.516 42.3634 114.046 42.0795C113.576 41.7956 113.242 41.4269 113.044 40.9732L115.301 39.9909C115.466 40.3449 115.7 40.5556 116.002 40.623C116.302 40.6855 116.631 40.6389 116.989 40.483C117.319 40.3395 117.535 40.1656 117.64 39.9612C117.749 39.7547 117.756 39.544 117.663 39.3291ZM124.621 38.8905L122.199 39.9445L118.825 32.1939L121.247 31.1399L124.621 38.8905ZM117.812 30.2577C117.662 29.9139 117.664 29.5781 117.817 29.2503C117.969 28.9226 118.244 28.6724 118.64 28.4999C119.037 28.3273 119.407 28.2968 119.751 28.4084C120.095 28.52 120.342 28.7477 120.491 29.0915C120.641 29.4353 120.639 29.7711 120.487 30.0989C120.334 30.4267 120.059 30.6768 119.663 30.8494C119.267 31.0219 118.897 31.0524 118.553 30.9408C118.209 30.8293 117.962 30.6016 117.812 30.2577Z" fill="#FCFCFC"/>
<path d="M207.278 29.3873L209.681 30.6921L205.957 37.5509C205.611 38.1871 205.154 38.6739 204.586 39.0112C204.022 39.3511 203.4 39.5142 202.72 39.5005C202.044 39.4893 201.382 39.3073 200.732 38.9543C199.642 38.3628 198.945 37.6284 198.639 36.7511C198.333 35.8738 198.453 34.9317 199 33.9247L201.417 35.2369C201.168 35.6947 201.066 36.0687 201.11 36.3592C201.158 36.6522 201.368 36.8993 201.738 37.1006C202.072 37.282 202.396 37.2976 202.709 37.1474C203.028 36.9951 203.31 36.6946 203.554 36.2461L207.278 29.3873ZM210.532 43.0577C209.702 43.4188 208.87 43.3732 208.037 42.9209C207.222 42.4785 206.732 41.9073 206.567 41.2072C206.409 40.505 206.571 39.7099 207.053 38.822L209.667 34.0091L211.98 35.2655L209.36 40.092C209.014 40.7283 209.15 41.2141 209.768 41.5496C210.299 41.8379 210.78 41.853 211.21 41.5949L214.04 36.3839L216.367 37.6477L212.334 45.0763L210.164 43.8983L210.532 43.0577ZM219.828 39.5266L219.43 40.4395C220.322 40.0525 221.211 40.1 222.099 40.5822C223.038 41.0917 223.469 41.8089 223.393 42.7339C224.302 42.2613 225.232 42.2834 226.184 42.8003C227.69 43.618 227.969 44.9489 227.021 46.7929L224.397 51.6264L222.076 50.3663L224.622 45.6771C224.829 45.2972 224.915 44.9854 224.881 44.7419C224.848 44.4984 224.661 44.2847 224.323 44.1008C223.865 43.8522 223.413 43.8708 222.968 44.1564L222.922 44.2562L220.168 49.3299L217.847 48.0699L220.386 43.3944C220.597 43.0053 220.688 42.6903 220.659 42.4492C220.63 42.2082 220.441 41.9932 220.093 41.8043C219.649 41.5633 219.2 41.583 218.745 41.8636L215.938 47.0335L213.625 45.7772L217.658 38.3485L219.828 39.5266ZM229.903 54.6162C229.903 54.4204 229.95 54.1587 230.045 53.8309C229.328 54.1353 228.588 54.08 227.824 53.6649C227.123 53.2847 226.643 52.7511 226.382 52.064C226.123 51.3724 226.168 50.7062 226.516 50.0654C226.953 49.2599 227.581 48.8127 228.4 48.7238C229.218 48.635 230.195 48.8987 231.33 49.5151L232.045 49.9028L232.257 49.5114C232.627 48.8294 232.517 48.3282 231.927 48.0075C231.378 47.7093 230.956 47.8302 230.663 48.3703L228.349 47.114C228.74 46.3954 229.361 45.9771 230.213 45.8591C231.07 45.7436 231.972 45.943 232.92 46.4575C233.867 46.972 234.49 47.6094 234.788 48.37C235.086 49.1305 235.024 49.9173 234.6 50.7303L232.814 54.019C232.453 54.7059 232.275 55.2849 232.28 55.7558L232.217 55.8725L229.903 54.6162ZM229.275 52.3192C229.563 52.4757 229.834 52.5432 230.089 52.5215C230.349 52.5023 230.562 52.4372 230.729 52.3264L231.373 51.1386L230.701 50.7733C229.895 50.3358 229.296 50.4787 228.903 51.2019C228.789 51.4125 228.767 51.6226 228.837 51.8324C228.909 52.0376 229.055 52.1999 229.275 52.3192Z" fill="#FCFCFC"/>
<path d="M285.891 102.064L284.282 101.615L281.603 102.964L280.369 100.515L290.528 95.3982L291.762 97.8473L287.283 100.104L289.002 100.305L293.294 100.889L294.82 103.918L288.597 102.748L284.66 109.035L283.198 106.132L285.891 102.064ZM287.061 113.8C287.172 113.639 287.36 113.451 287.625 113.236C286.863 113.078 286.286 112.61 285.895 111.833C285.537 111.121 285.446 110.409 285.623 109.696C285.805 108.98 286.222 108.458 286.873 108.13C287.692 107.718 288.463 107.709 289.186 108.102C289.909 108.496 290.561 109.27 291.142 110.424L291.508 111.149L291.905 110.949C292.598 110.6 292.794 110.125 292.492 109.525C292.211 108.967 291.795 108.826 291.247 109.103L290.062 106.751C290.793 106.383 291.541 106.394 292.309 106.783C293.079 107.177 293.706 107.855 294.191 108.818C294.676 109.781 294.824 110.66 294.636 111.454C294.447 112.249 293.947 112.86 293.135 113.286L289.793 114.97C289.105 115.328 288.628 115.702 288.364 116.092L288.245 116.152L287.061 113.8ZM287.854 111.555C288.002 111.848 288.187 112.058 288.408 112.186C288.632 112.318 288.844 112.386 289.045 112.39L290.252 111.782L289.907 111.098C289.495 110.279 288.921 110.055 288.186 110.425C287.972 110.533 287.834 110.693 287.772 110.905C287.714 111.115 287.742 111.331 287.854 111.555ZM293.081 118.754L292.085 118.425L289.936 119.508L288.751 117.156L299.476 111.755L300.66 114.106L294.966 116.974L295.4 117.053L298.497 117.715L299.917 120.533L295.48 119.453L292.455 124.51L291.099 121.817L293.081 118.754ZM293.928 127.434L292.74 125.076L300.29 121.273L301.478 123.631L293.928 127.434ZM302.166 120.153C302.501 119.984 302.836 119.967 303.172 120.101C303.508 120.235 303.773 120.495 303.968 120.881C304.162 121.267 304.213 121.635 304.121 121.985C304.029 122.335 303.815 122.594 303.48 122.762C303.146 122.931 302.81 122.948 302.474 122.814C302.139 122.68 301.873 122.42 301.679 122.034C301.484 121.648 301.433 121.28 301.525 120.93C301.618 120.581 301.831 120.322 302.166 120.153Z" fill="#FCFCFC"/>
<path d="M290.469 230.321L289.995 231.727L293.801 233.009L292.926 235.608L282.145 231.978L283.574 227.735C284.005 226.457 284.625 225.553 285.435 225.023C286.246 224.494 287.169 224.403 288.206 224.753C288.956 225.005 289.526 225.368 289.917 225.84C290.309 226.307 290.549 226.916 290.638 227.665L295.742 226.878L295.853 226.916L294.915 229.699L290.469 230.321ZM287.989 231.052L288.542 229.408C288.708 228.914 288.705 228.501 288.531 228.168C288.354 227.828 288.034 227.58 287.57 227.424C287.106 227.267 286.701 227.271 286.354 227.435C286.003 227.597 285.745 227.922 285.581 228.411L285.027 230.054L287.989 231.052ZM297.738 221.318C297.545 221.352 297.279 221.35 296.94 221.313C297.363 221.967 297.435 222.706 297.158 223.53C296.903 224.285 296.46 224.85 295.828 225.226C295.191 225.599 294.527 225.67 293.836 225.437C292.968 225.144 292.419 224.602 292.191 223.811C291.963 223.02 292.055 222.012 292.467 220.788L292.727 220.018L292.305 219.876C291.569 219.628 291.094 219.823 290.88 220.46C290.68 221.052 290.872 221.446 291.454 221.642L290.614 224.137C289.839 223.876 289.32 223.336 289.058 222.517C288.797 221.693 288.838 220.769 289.182 219.748C289.526 218.726 290.047 218.003 290.745 217.578C291.443 217.154 292.229 217.081 293.103 217.358L296.649 218.553C297.388 218.791 297.989 218.866 298.452 218.781L298.578 218.823L297.738 221.318ZM295.583 222.332C295.687 222.021 295.707 221.742 295.642 221.494C295.579 221.242 295.478 221.044 295.34 220.898L294.059 220.467L293.815 221.192C293.522 222.061 293.766 222.627 294.546 222.889C294.773 222.966 294.984 222.952 295.178 222.847C295.368 222.74 295.503 222.569 295.583 222.332ZM296.475 213.515L292.407 210.661L293.307 207.988L301.559 214.402L301.852 214.658C302.732 215.471 302.975 216.465 302.579 217.64C302.469 217.965 302.304 218.292 302.084 218.619L300.3 218.018L300.41 217.692C300.528 217.342 300.566 217.058 300.523 216.84C300.488 216.619 300.354 216.42 300.123 216.244L299.657 215.864L290.634 215.925L291.532 213.26L296.475 213.515Z" fill="#FCFCFC"/>
<path d="M201.843 299.867L199.392 300.85L194.928 289.711L197.379 288.729L201.843 299.867ZM207.775 297.49C207.624 297.366 207.453 297.162 207.261 296.88C207.038 297.626 206.523 298.16 205.716 298.484C204.976 298.78 204.259 298.81 203.563 298.572C202.865 298.33 202.381 297.87 202.11 297.194C201.769 296.343 201.825 295.574 202.28 294.887C202.734 294.2 203.56 293.616 204.759 293.136L205.513 292.833L205.348 292.42C205.059 291.7 204.603 291.464 203.979 291.714C203.399 291.947 203.223 292.348 203.452 292.919L201.008 293.898C200.704 293.139 200.778 292.394 201.231 291.662C201.689 290.929 202.419 290.362 203.42 289.961C204.42 289.56 205.309 289.487 206.084 289.743C206.86 289.999 207.426 290.549 207.781 291.394L209.174 294.868C209.472 295.584 209.804 296.091 210.17 296.388L210.219 296.511L207.775 297.49ZM205.606 296.508C205.91 296.386 206.136 296.22 206.281 296.01C206.432 295.798 206.518 295.592 206.539 295.393L206.037 294.139L205.326 294.423C204.475 294.764 204.203 295.317 204.509 296.081C204.598 296.303 204.745 296.454 204.951 296.535C205.156 296.61 205.374 296.601 205.606 296.508ZM213.225 291.914L212.812 292.879L213.707 295.113L211.263 296.092L206.797 284.946L209.24 283.967L211.612 289.884L211.728 289.459L212.651 286.429L215.581 285.255L214.126 289.584L218.907 293.029L216.108 294.151L213.225 291.914ZM217.458 288.972C217.144 288.189 217.017 287.432 217.078 286.701C217.136 285.965 217.385 285.318 217.824 284.761C218.262 284.203 218.866 283.771 219.635 283.463C220.809 282.992 221.882 282.986 222.851 283.444C223.818 283.898 224.553 284.751 225.055 286.004L225.09 286.091C225.58 287.314 225.629 288.422 225.236 289.416C224.845 290.402 224.07 291.128 222.91 291.593C221.793 292.041 220.763 292.067 219.818 291.671C218.872 291.27 218.143 290.507 217.631 289.383L217.458 288.972ZM219.963 288.145C220.253 288.87 220.58 289.357 220.943 289.604C221.306 289.851 221.71 289.886 222.154 289.708C223.025 289.359 223.201 288.511 222.684 287.164L222.585 286.918C222.021 285.511 221.29 284.988 220.39 285.348C219.573 285.675 219.374 286.459 219.793 287.7L219.963 288.145ZM226.807 280.757L227.256 281.646C227.512 280.718 228.117 280.063 229.069 279.682C229.886 279.354 230.593 279.354 231.19 279.682C231.792 280.007 232.297 280.658 232.705 281.633L234.73 286.688L232.279 287.67L230.294 282.717C230.135 282.321 229.939 282.063 229.706 281.943C229.471 281.818 229.143 281.84 228.723 282.009C228.244 282.201 227.964 282.532 227.883 283.002L230.104 288.542L227.66 289.521L224.515 281.675L226.807 280.757Z" fill="#FCFCFC"/>
<path d="M99.9235 273.301L96.7779 271.974L93.1795 280.504L90.653 279.438L94.2514 270.908L91.1633 269.606L91.9863 267.655L100.746 271.35L99.9235 273.301ZM100.464 283.577C100.445 283.382 100.466 283.117 100.528 282.782C99.8452 283.155 99.1029 283.172 98.3015 282.834C97.5673 282.525 97.0366 282.041 96.7093 281.383C96.3841 280.72 96.3632 280.052 96.6467 279.38C97.003 278.536 97.5841 278.029 98.3902 277.861C99.1962 277.692 100.194 277.858 101.384 278.361L102.133 278.676L102.306 278.266C102.608 277.551 102.449 277.063 101.83 276.802C101.254 276.559 100.847 276.721 100.608 277.287L98.1821 276.263C98.4999 275.51 99.0771 275.033 99.9138 274.832C100.755 274.633 101.673 274.743 102.666 275.162C103.659 275.581 104.342 276.154 104.713 276.882C105.084 277.609 105.099 278.399 104.757 279.249L103.303 282.697C103.011 283.416 102.89 284.01 102.942 284.478L102.89 284.6L100.464 283.577ZM99.6133 281.353C99.9157 281.48 100.193 281.521 100.444 281.474C100.7 281.43 100.906 281.344 101.061 281.217L101.586 279.972L100.881 279.674C100.036 279.318 99.4542 279.519 99.1343 280.277C99.0412 280.498 99.0397 280.709 99.1297 280.911C99.2218 281.108 99.383 281.256 99.6133 281.353ZM108.34 282.897L111.488 279.053L114.086 280.149L107.077 287.901L106.8 288.175C105.924 288.992 104.915 289.16 103.773 288.678C103.456 288.545 103.143 288.356 102.833 288.112L103.565 286.377L103.881 286.511C104.222 286.655 104.503 286.714 104.723 286.688C104.945 286.669 105.154 286.55 105.347 286.332L105.76 285.896L106.37 276.894L108.961 277.987L108.34 282.897ZM119.513 287.848L122.235 283.587L124.56 284.567L119.439 291.582L117.387 290.716L118.048 285.551L114.803 289.626L112.751 288.761L114.202 280.198L116.527 281.179L115.314 286.204L118.535 282.026L120.226 282.739L119.513 287.848ZM123.516 288.63C123.844 287.852 124.287 287.225 124.844 286.748C125.403 286.266 126.035 285.981 126.739 285.894C127.443 285.806 128.176 285.924 128.939 286.245C130.105 286.737 130.872 287.487 131.238 288.495C131.606 289.499 131.528 290.622 131.004 291.865L130.967 291.951C130.455 293.165 129.71 293.987 128.731 294.417C127.76 294.843 126.698 294.814 125.547 294.328C124.438 293.86 123.688 293.154 123.295 292.208C122.905 291.258 122.923 290.203 123.35 289.043L123.516 288.63ZM125.878 289.804C125.574 290.524 125.464 291.099 125.548 291.53C125.632 291.961 125.895 292.27 126.336 292.456C127.2 292.821 127.922 292.342 128.502 291.021L128.605 290.776C129.194 289.38 129.042 288.494 128.15 288.117C127.339 287.775 126.646 288.192 126.07 289.368L125.878 289.804Z" fill="#FCFCFC"/>
<path d="M27.5976 188.003L24.1057 189.646L22.9379 187.165L33.23 182.321L35.1629 186.428C35.5333 187.215 35.7144 187.979 35.7061 188.72C35.7047 189.463 35.5131 190.126 35.1311 190.709C34.7561 191.294 34.2292 191.746 33.5507 192.065C32.5469 192.538 31.5737 192.556 30.6312 192.118C29.6956 191.684 28.9328 190.84 28.3428 189.586L27.5976 188.003ZM29.5132 187.101L30.2784 188.727C30.5046 189.208 30.7967 189.516 31.1546 189.653C31.5147 189.794 31.9139 189.762 32.3521 189.556C32.8328 189.329 33.1559 189.019 33.3214 188.625C33.4868 188.23 33.4666 187.808 33.2606 187.358L32.4821 185.704L29.5132 187.101ZM29.3122 200.709C29.4278 200.551 29.6209 200.368 29.8914 200.16C29.1338 199.981 28.5698 199.498 28.1994 198.711C27.8601 197.99 27.7885 197.276 27.9847 196.567C28.1857 195.857 28.616 195.346 29.2758 195.036C30.1052 194.646 30.8761 194.657 31.5886 195.07C32.301 195.483 32.9323 196.274 33.4823 197.442L33.8283 198.178L34.2312 197.988C34.9334 197.657 35.1414 197.188 34.8553 196.58C34.5891 196.015 34.178 195.863 33.622 196.125L32.5008 193.743C33.2407 193.394 33.989 193.425 34.7458 193.834C35.5048 194.248 36.1139 194.943 36.573 195.919C37.0321 196.894 37.1568 197.777 36.947 198.566C36.7371 199.356 36.2209 199.953 35.3981 200.357L32.0122 201.951C31.3145 202.291 30.8283 202.652 30.5536 203.034L30.4334 203.091L29.3122 200.709ZM30.1654 198.485C30.3051 198.782 30.4841 198.997 30.7022 199.131C30.9226 199.269 31.1329 199.343 31.333 199.352L32.5559 198.776L32.2299 198.084C31.8395 197.254 31.2721 197.015 30.5275 197.365C30.3107 197.467 30.1684 197.623 30.1005 197.834C30.0373 198.042 30.0589 198.259 30.1654 198.485ZM39.5822 202.679L38.7211 203.18C39.6622 203.381 40.3512 203.946 40.7882 204.875C41.163 205.671 41.2045 206.377 40.9126 206.992C40.623 207.612 40.0031 208.154 39.0532 208.618L34.1262 210.937L33.0018 208.548L37.8297 206.276C38.2161 206.094 38.4623 205.883 38.5682 205.643C38.6788 205.401 38.6376 205.075 38.4446 204.665C38.225 204.199 37.8782 203.939 37.4042 203.886L32.0037 206.427L30.8825 204.045L38.5309 200.446L39.5822 202.679ZM38.4894 210.136C39.7005 209.566 40.7779 209.378 41.7215 209.573C42.6651 209.768 43.3576 210.334 43.799 211.272C44.1206 211.955 44.1226 212.657 43.8049 213.376L47.6786 211.553L48.8031 213.942L37.9455 219.052L36.9375 216.91L37.7009 216.404C36.8293 216.216 36.2161 215.745 35.8612 214.991C35.4332 214.081 35.4426 213.196 35.8894 212.335C36.3362 211.474 37.2029 210.741 38.4894 210.136ZM39.4621 212.588C38.1049 213.227 37.6126 213.942 37.9852 214.734C38.2336 215.261 38.6325 215.534 39.182 215.552L42.0943 214.181C42.4447 213.751 42.4957 213.273 42.2473 212.745C41.9013 212.01 41.1201 211.891 39.9037 212.389L39.4621 212.588ZM40.6104 224.714C40.7259 224.556 40.919 224.373 41.1896 224.165C40.4319 223.987 39.8679 223.504 39.4975 222.717C39.1582 221.996 39.0866 221.281 39.2829 220.573C39.4838 219.862 39.9141 219.352 40.5739 219.041C41.4033 218.651 42.1742 218.662 42.8867 219.075C43.5991 219.488 44.2304 220.279 44.7804 221.448L45.1264 222.183L45.5293 221.993C46.2315 221.663 46.4395 221.194 46.1534 220.586C45.8873 220.02 45.4761 219.868 44.9201 220.13L43.7989 217.748C44.5388 217.4 45.2871 217.43 46.0439 217.84C46.8029 218.254 47.412 218.949 47.8711 219.924C48.3302 220.9 48.4549 221.782 48.2451 222.572C48.0353 223.361 47.519 223.958 46.6962 224.363L43.3103 225.956C42.6126 226.296 42.1264 226.657 41.8517 227.04L41.7315 227.096L40.6104 224.714ZM41.4635 222.491C41.6032 222.788 41.7822 223.003 42.0004 223.136C42.2207 223.274 42.431 223.348 42.6312 223.357L43.8541 222.782L43.528 222.089C43.1377 221.26 42.5702 221.02 41.8256 221.371C41.6088 221.473 41.4665 221.629 41.3986 221.839C41.3354 222.047 41.357 222.265 41.4635 222.491Z" fill="#FCFCFC"/>
<path d="M89.9473 218.1L86.8983 214.898L83.6165 218.022L81.7256 216.036L89.9641 208.193L95.211 213.704L93.6776 215.164L90.3215 211.639L88.426 213.443L91.475 216.646L89.9473 218.1ZM95.4577 221.656L94.905 220.985C94.334 220.385 93.7791 220.18 93.2402 220.369L89.3643 224.06L87.5489 222.153L93.6712 216.324L95.3734 218.112L94.6462 218.923C95.5512 218.673 96.2767 218.834 96.8226 219.408C97.0165 219.611 97.1627 219.81 97.261 220.004L95.4577 221.656ZM94.8375 229.808C94.8973 229.622 95.0228 229.387 95.2139 229.105C94.4386 229.174 93.7511 228.894 93.1513 228.264C92.6018 227.687 92.3085 227.031 92.2713 226.297C92.2378 225.559 92.4851 224.939 93.0132 224.436C93.6771 223.804 94.4123 223.572 95.2186 223.739C96.025 223.906 96.8735 224.458 97.7642 225.393L98.3244 225.982L98.6469 225.675C99.209 225.139 99.2584 224.629 98.7951 224.142C98.3641 223.689 97.9261 223.675 97.481 224.099L95.6656 222.192C96.2578 221.628 96.9776 221.421 97.8249 221.571C98.6758 221.724 99.473 222.191 100.216 222.972C100.96 223.753 101.356 224.551 101.406 225.367C101.456 226.182 101.155 226.911 100.502 227.555L97.7913 230.135C97.2365 230.678 96.889 231.174 96.7491 231.624L96.6529 231.715L94.8375 229.808ZM94.9456 227.429C95.1719 227.667 95.4096 227.815 95.6587 227.872C95.9113 227.934 96.1341 227.937 96.327 227.883L97.3059 226.951L96.778 226.397C96.1459 225.733 95.5319 225.685 94.9359 226.252C94.7624 226.417 94.6766 226.61 94.6785 226.831C94.6842 227.049 94.7733 227.248 94.9456 227.429ZM105.205 228.438L104.545 229.185C105.502 229.079 106.334 229.398 107.042 230.141C107.649 230.779 107.911 231.435 107.828 232.111C107.748 232.791 107.331 233.501 106.576 234.241L102.632 237.996L100.812 236.083L104.676 232.404C104.986 232.11 105.153 231.832 105.177 231.571C105.206 231.306 105.064 231.01 104.752 230.682C104.396 230.308 103.985 230.171 103.518 230.27L99.1955 234.386L97.3801 232.479L103.502 226.65L105.205 228.438ZM108.263 239.344L107.214 239.319L105.471 240.978L103.656 239.071L112.353 230.791L114.168 232.698L109.551 237.094L109.989 237.044L113.145 236.779L115.321 239.065L110.762 239.317L109.334 245.035L107.254 242.851L108.263 239.344Z" fill="#F2A259"/>
<path d="M227.222 242.242L218.258 235.238L220.514 232.351C221.133 231.559 221.87 230.988 222.725 230.638C223.576 230.285 224.468 230.189 225.4 230.349C226.332 230.502 227.205 230.893 228.021 231.524L228.434 231.847C229.254 232.488 229.855 233.238 230.235 234.097C230.614 234.948 230.741 235.834 230.617 236.755C230.491 237.668 230.128 238.514 229.526 239.293L227.222 242.242ZM221.615 234.381L227.248 238.782L227.835 238.031C228.319 237.411 228.471 236.764 228.292 236.088C228.109 235.41 227.582 234.73 226.712 234.05L226.324 233.747C225.458 233.071 224.675 232.727 223.977 232.716C223.278 232.706 222.68 233.019 222.183 233.655L221.615 234.381ZM236.447 230.434C236.254 230.402 236.004 230.312 235.696 230.165C235.878 230.921 235.702 231.643 235.166 232.328C234.675 232.956 234.07 233.342 233.349 233.486C232.624 233.627 231.975 233.473 231.4 233.024C230.678 232.46 230.34 231.766 230.388 230.944C230.435 230.122 230.857 229.202 231.652 228.184L232.152 227.544L231.801 227.27C231.19 226.792 230.677 226.818 230.263 227.347C229.879 227.84 229.928 228.275 230.413 228.654L228.792 230.728C228.147 230.225 227.837 229.543 227.862 228.683C227.889 227.819 228.235 226.962 228.899 226.112C229.562 225.263 230.294 224.754 231.093 224.585C231.892 224.416 232.658 224.608 233.39 225.16L236.339 227.464C236.957 227.934 237.498 228.205 237.964 228.278L238.068 228.36L236.447 230.434ZM234.078 230.675C234.28 230.416 234.392 230.16 234.412 229.905C234.436 229.646 234.407 229.425 234.325 229.242L233.26 228.41L232.789 229.013C232.224 229.736 232.267 230.35 232.915 230.857C233.104 231.004 233.307 231.061 233.526 231.027C233.74 230.989 233.924 230.872 234.078 230.675ZM238.279 223.002L234.909 218.673L236.617 216.488L241.58 223.865L239.925 225.983L231.566 222.952L233.279 220.76L238.279 223.002ZM246.335 218.033C245.536 219.055 244.587 219.645 243.485 219.802C242.38 219.957 241.339 219.652 240.362 218.889L240.19 218.754C239.508 218.222 239.005 217.627 238.679 216.969C238.357 216.308 238.243 215.624 238.339 214.918C238.43 214.21 238.735 213.523 239.254 212.858C239.986 211.922 240.854 211.411 241.86 211.325C242.862 211.235 243.882 211.596 244.921 212.407L245.727 213.037L242.504 217.162C242.936 217.38 243.356 217.447 243.765 217.364C244.174 217.28 244.534 217.039 244.845 216.641C245.358 215.984 245.529 215.292 245.358 214.563L247.219 214.491C247.374 215.028 247.372 215.618 247.214 216.261C247.054 216.897 246.761 217.487 246.335 218.033ZM240.845 214.121C240.371 214.728 240.491 215.404 241.206 216.147L242.841 214.054L242.681 213.929C242.355 213.661 242.033 213.545 241.714 213.58C241.392 213.612 241.102 213.793 240.845 214.121Z" fill="#F2A259"/>
<path d="M232.92 105.723C232.289 105.737 231.591 105.546 230.826 105.15C230.061 104.754 229.346 104.204 228.683 103.498C227.662 102.413 227.179 101.234 227.233 99.9607C227.286 98.6875 227.884 97.4715 229.025 96.3127L229.736 95.6326C230.552 94.8654 231.399 94.3405 232.277 94.058C233.159 93.7718 234.015 93.7428 234.844 93.9709C235.681 94.1992 236.431 94.6662 237.095 95.3719C238.066 96.4038 238.581 97.4274 238.642 98.4425C238.711 99.4579 238.321 100.454 237.473 101.43L235.664 99.5063C236.063 99.0027 236.253 98.5443 236.237 98.1311C236.22 97.7179 236.015 97.3026 235.623 96.8853C235.152 96.3845 234.575 96.1973 233.893 96.3238C233.212 96.4503 232.474 96.8827 231.682 97.6211L231.181 98.0921C230.354 98.87 229.863 99.5956 229.71 100.269C229.564 100.942 229.777 101.583 230.348 102.19C230.837 102.709 231.316 102.988 231.787 103.024L233.073 101.814L231.767 100.426L233.138 99.1359L236.323 102.522L232.92 105.723ZM240.829 107.325L240.281 106.65C239.713 106.047 239.16 105.839 238.62 106.025L234.722 109.691L232.918 107.773L239.075 101.982L240.767 103.78L240.035 104.587C240.941 104.342 241.666 104.508 242.208 105.085C242.401 105.289 242.546 105.489 242.643 105.684L240.829 107.325ZM239.639 115.148C238.75 114.203 238.312 113.174 238.324 112.062C238.34 110.946 238.799 109.963 239.702 109.114L239.862 108.964C240.491 108.372 241.156 107.965 241.856 107.743C242.559 107.525 243.252 107.517 243.934 107.719C244.621 107.917 245.253 108.323 245.832 108.937C246.645 109.802 247.018 110.739 246.95 111.746C246.886 112.75 246.374 113.703 245.415 114.606L244.669 115.307L241.083 111.494C240.802 111.887 240.672 112.292 240.692 112.709C240.712 113.126 240.896 113.519 241.242 113.887C241.813 114.494 242.471 114.768 243.217 114.71L243.006 116.561C242.451 116.632 241.868 116.541 241.257 116.286C240.653 116.032 240.113 115.652 239.639 115.148ZM244.341 110.318C243.813 109.756 243.127 109.772 242.284 110.365L244.104 112.3L244.251 112.161C244.566 111.879 244.73 111.579 244.743 111.258C244.761 110.935 244.627 110.621 244.341 110.318ZM247.85 118.268L252.285 116.027L254.217 118.082L244.669 122.332L244.306 122.47C243.174 122.863 242.183 122.608 241.334 121.705C241.098 121.454 240.888 121.155 240.703 120.807L242.075 119.517L242.31 119.767C242.564 120.036 242.796 120.204 243.008 120.269C243.219 120.342 243.458 120.318 243.723 120.197L244.277 119.966L248.48 111.981L250.406 114.03L247.85 118.268Z" fill="#F2A259"/>
<line x1="255.131" y1="86.1013" x2="285.131" y2="57.1013" stroke="white" stroke-width="2.5"/>
<path d="M50 46L80 78" stroke="white" stroke-width="2.5"/>
<line x1="44.2054" y1="274.035" x2="78.2054" y2="246.035" stroke="white" stroke-width="2.5"/>
<line x1="249.951" y1="249.189" x2="278.951" y2="283.189" stroke="white" stroke-width="2.5"/>
</svg>
